<?xml version="1.0" standalone="no"?>
<!DOCTYPE svg PUBLIC "-//W3C//DTD SVG 20010904//EN"
 "http://www.w3.org/TR/2001/REC-SVG-20010904/DTD/svg10.dtd">
<svg version="1.0" xmlns="http://www.w3.org/2000/svg"
 width="479.000000pt" height="479.000000pt" viewBox="0 0 479.000000 479.000000"
 preserveAspectRatio="xMidYMid meet">
<metadata>
Created by potrace 1.11, written by Peter Selinger 2001-2013
</metadata>
<g transform="translate(0.000000,479.000000) scale(0.100000,-0.100000)"
fill="#000000" stroke="none">
<path d="M2098 4775 c-2 -2 -48 -6 -103 -9 -203 -12 -251 -18 -298 -38 -31
-14 -49 -28 -52 -42 -2 -11 -3 -133 -1 -271 1 -143 -2 -255 -7 -262 -6 -9 -5
-13 3 -13 8 0 10 -3 7 -7 -9 -8 24 -32 46 -33 17 0 21 -10 17 -45 -1 -11 -3
-31 -4 -44 -1 -22 -9 -27 -68 -41 -37 -9 -76 -16 -88 -15 -11 1 -20 -1 -20 -5
0 -3 -16 -12 -35 -19 -19 -7 -35 -16 -35 -21 0 -5 -7 -7 -15 -4 -8 4 -15 1
-15 -5 0 -6 -3 -10 -7 -9 -17 3 -43 -15 -36 -25 4 -6 0 -8 -10 -4 -9 3 -19 1
-23 -5 -5 -7 -2 -8 7 -3 8 4 1 -4 -15 -19 -27 -24 -65 -83 -47 -71 5 3 4 -6
-2 -19 -7 -13 -14 -23 -17 -21 -3 2 -6 -40 -8 -93 -4 -138 -4 -2969 0 -3138 2
-107 0 -141 -9 -141 -10 0 -10 3 0 16 10 12 9 13 -3 6 -19 -12 -70 -15 -70 -4
0 5 -5 9 -11 9 -8 0 -8 -5 1 -15 10 -12 9 -16 -5 -22 -12 -4 -23 0 -31 12 -8
10 -14 14 -14 9 0 -6 5 -15 12 -22 9 -9 9 -12 1 -12 -7 0 -19 10 -27 22 -9 12
-16 17 -16 11 0 -6 7 -16 15 -23 8 -7 15 -20 15 -28 0 -13 3 -12 15 4 13 16
16 17 25 4 9 -14 14 -7 11 13 -1 5 4 5 10 1 7 -4 9 -3 5 4 -4 7 1 10 14 7 11
-2 20 0 20 6 0 5 11 2 25 -7 18 -12 22 -20 15 -29 -5 -6 -6 -16 -2 -20 4 -5 1
-5 -6 -1 -11 6 -11 11 0 24 11 14 10 15 -6 9 -10 -4 -25 -2 -33 5 -12 9 -14 7
-10 -13 2 -13 2 -18 0 -12 -6 17 -18 16 -33 -2 -7 -9 -19 -14 -26 -11 -7 3
-15 -2 -18 -10 -4 -11 0 -13 19 -8 14 3 25 2 25 -3 0 -8 -19 -13 -60 -13 -35
-1 -50 3 -50 13 0 5 7 7 14 4 10 -4 13 -1 10 8 -3 7 -11 16 -18 18 -9 4 -12
-7 -11 -34 1 -27 -4 -43 -14 -49 -10 -6 -11 -10 -4 -10 7 0 12 -3 11 -7 -3
-14 14 -43 22 -38 4 3 10 -2 14 -10 3 -8 11 -15 18 -15 11 0 11 2 0 8 -17 11
-25 53 -9 50 7 -1 22 3 34 10 20 11 22 10 16 -4 -5 -13 -3 -15 8 -9 11 7 11 5
-1 -10 -14 -17 -13 -18 2 -12 10 3 20 2 23 -3 4 -6 12 -10 18 -10 7 0 6 4 -3
10 -8 5 -11 12 -7 16 3 4 15 -4 26 -17 18 -22 20 -22 26 -6 4 9 12 17 17 17 6
0 6 -6 -1 -14 -15 -18 -2 -27 33 -24 29 3 34 13 10 22 -13 5 -14 9 -4 21 7 8
17 15 23 15 6 0 3 -6 -7 -13 -18 -13 -18 -14 -1 -20 9 -4 15 -13 12 -21 -3 -8
3 -23 13 -34 10 -11 16 -23 13 -26 -4 -3 -2 -6 4 -6 5 0 15 12 22 26 6 14 17
24 24 21 14 -5 39 18 29 27 -3 4 1 4 11 1 15 -6 14 -9 -6 -26 l-22 -18 23 -1
c15 0 21 4 16 12 -4 7 -3 8 4 4 7 -4 12 -1 12 6 0 8 4 7 11 -4 5 -9 16 -15 24
-12 8 4 13 9 10 13 -2 4 2 8 10 8 8 0 17 -9 21 -19 3 -10 10 -18 15 -18 6 0 7
5 4 10 -3 6 -1 10 5 10 7 0 10 -6 7 -12 -2 -7 -11 -13 -20 -13 -8 0 -19 -4
-23 -8 -4 -4 -13 -2 -20 3 -17 15 -53 20 -59 9 -4 -5 -11 -7 -16 -4 -5 4 -9 2
-9 -3 0 -5 9 -12 19 -15 15 -3 18 -1 13 11 -4 12 2 11 25 -6 23 -17 33 -19 43
-9 10 10 11 7 6 -13 -6 -25 -6 -25 5 -3 7 13 16 23 21 23 5 0 6 -5 3 -10 -3
-6 -1 -10 5 -10 7 0 10 6 7 14 -3 8 1 17 9 20 9 3 12 11 8 17 -4 8 -3 9 4 5 7
-4 12 -2 12 3 0 6 5 11 12 11 6 0 4 -7 -5 -18 -10 -10 -14 -22 -10 -25 3 -4 0
-7 -8 -7 -12 0 -12 -2 1 -10 9 -5 19 -5 26 0 6 6 14 7 17 3 4 -3 0 -11 -8 -17
-12 -9 -9 -11 17 -12 l33 -1 -25 27 c-14 16 -28 23 -31 18 -4 -7 -9 -6 -13 1
-7 11 6 15 33 12 7 -2 10 2 6 8 -3 6 -2 11 4 11 5 0 12 -6 15 -12 3 -9 10 -7
21 7 16 19 16 19 13 1 -2 -10 3 -21 11 -24 8 -3 11 0 7 7 -5 7 -1 9 9 4 13 -5
14 -7 3 -14 -9 -6 -8 -9 7 -9 11 0 27 12 36 26 14 22 17 24 22 10 4 -10 3 -15
-3 -11 -6 3 -10 2 -10 -4 0 -15 18 -23 25 -11 4 6 10 8 15 5 5 -3 14 3 20 12
11 17 11 17 6 0 -4 -12 -2 -17 6 -14 7 2 12 10 10 16 -1 7 2 10 8 6 8 -5 8
-11 0 -20 -8 -9 -6 -14 5 -19 9 -3 13 -2 10 3 -3 5 0 13 7 18 18 11 39 13 33
3 -3 -5 -1 -11 5 -15 5 -3 10 0 10 7 0 10 2 10 9 -1 12 -19 41 -23 34 -5 -3 8
0 14 7 14 6 0 8 -5 5 -10 -6 -10 10 -15 30 -10 6 2 18 2 28 2 9 0 15 4 11 9
-7 12 19 7 28 -6 4 -5 8 -14 8 -20 0 -5 -4 -4 -9 4 -8 12 -12 12 -25 2 -13
-11 -16 -11 -16 0 0 9 -3 10 -8 4 -4 -6 -14 -10 -22 -10 -8 1 -21 -3 -27 -8
-8 -6 -13 -6 -13 0 0 14 -83 10 -88 -4 -2 -8 5 -13 17 -13 12 0 21 5 21 11 0
5 5 7 10 4 6 -4 8 -10 6 -14 -3 -4 1 -8 9 -8 8 0 11 5 8 10 -3 5 0 7 8 5 8 -3
13 -15 13 -27 -1 -12 1 -19 5 -16 3 4 6 12 6 17 0 6 6 13 14 16 9 3 11 0 6 -8
-5 -8 -4 -11 3 -6 6 4 9 13 6 21 -4 8 0 13 10 11 19 -3 34 -16 18 -16 -7 0 -5
-8 6 -18 19 -21 31 -20 13 1 -9 11 -8 17 3 26 10 8 16 9 21 1 3 -5 2 -10 -4
-10 -6 0 -8 -7 -4 -17 5 -13 8 -12 16 8 5 13 11 32 12 41 1 10 5 21 10 25 4 5
4 -2 1 -14 -5 -16 -1 -25 16 -34 13 -7 30 -12 37 -10 8 1 21 -5 28 -15 7 -10
13 -13 13 -7 0 7 -4 15 -10 18 -5 3 -10 11 -10 16 0 6 13 1 29 -10 16 -12 33
-21 38 -21 4 0 1 5 -7 10 -34 21 -11 62 31 55 16 -3 29 -1 29 5 0 5 5 10 11
10 8 0 7 -5 -1 -15 -7 -9 -20 -13 -27 -10 -9 3 -13 0 -10 -7 2 -7 15 -12 28
-10 22 3 25 -1 23 -28 -1 -16 2 -30 8 -30 5 0 6 9 3 20 -4 12 -1 28 7 37 8 10
8 14 1 10 -6 -4 -15 -3 -18 3 -4 6 -3 10 2 9 4 -1 16 1 27 6 14 6 23 2 37 -16
l18 -24 10 28 c12 31 26 37 16 7 -5 -14 -2 -20 10 -20 9 0 13 -5 9 -11 -4 -7
-10 -7 -16 -1 -7 7 -15 6 -24 -3 -19 -19 -18 -30 2 -14 13 10 17 10 24 -1 5
-8 6 -18 3 -24 -3 -5 -1 -6 5 -2 6 4 8 14 5 24 -5 14 -3 15 8 5 7 -7 17 -13
23 -13 5 0 2 6 -9 13 -12 10 -14 16 -7 21 7 4 12 2 12 -3 0 -6 7 -11 16 -11 8
0 13 -4 10 -8 -3 -5 16 -8 41 -7 27 0 48 6 51 13 2 7 8 12 13 12 6 0 6 -8 -1
-19 -7 -14 -7 -22 0 -26 6 -4 10 -3 9 2 -4 22 2 35 15 30 10 -4 13 -1 10 8 -3
7 -16 12 -29 10 -14 -1 -22 1 -19 6 2 4 -5 6 -16 4 -11 -2 -20 1 -20 6 0 5 6
9 13 8 25 -3 38 1 32 11 -3 6 1 13 9 16 9 3 14 10 11 14 -3 5 -1 11 4 14 12 8
7 -24 -5 -32 -11 -8 -12 -27 -2 -37 3 -4 9 3 13 16 6 17 9 19 16 8 12 -20 11
-37 -2 -19 -9 13 -10 13 -6 0 2 -8 10 -14 17 -12 7 2 9 -5 5 -18 -4 -12 -2
-20 5 -20 6 0 8 5 5 10 -8 13 11 13 37 -1 15 -8 19 -8 14 0 -4 6 -2 11 3 11 6
0 11 -7 11 -16 0 -12 6 -9 21 10 11 14 25 23 31 20 5 -3 0 -12 -11 -21 -12 -8
-21 -19 -21 -25 0 -7 7 -3 15 8 8 10 15 15 15 11 0 -5 8 -1 17 9 15 15 17 15
22 1 5 -13 8 -11 18 8 6 14 7 23 2 19 -5 -3 -9 1 -9 8 0 8 -5 6 -11 -4 -5 -10
-15 -18 -21 -18 -6 0 -5 7 3 17 10 11 10 14 2 9 -7 -4 -13 -3 -13 3 0 16 24
19 47 4 14 -10 23 -11 28 -4 3 6 1 11 -4 11 -6 0 -11 8 -11 17 0 14 3 13 17
-6 l16 -24 25 29 c16 20 20 22 13 7 -14 -27 -14 -36 -1 -28 5 3 10 1 10 -5 0
-7 -9 -9 -22 -5 -18 5 -20 4 -8 -4 8 -6 23 -8 34 -5 10 4 16 2 13 -3 -3 -5 -1
-15 5 -23 8 -12 9 -12 4 3 -3 9 -1 17 4 17 6 0 10 -5 10 -12 0 -6 3 -9 6 -5 7
7 -10 38 -22 40 -5 1 -8 8 -6 15 2 8 -1 11 -7 7 -7 -4 -8 0 -4 11 4 11 8 13
11 6 2 -7 8 -10 13 -7 5 4 6 -1 3 -10 -7 -17 16 -17 28 0 12 16 9 27 -4 19 -7
-4 -9 -3 -5 1 4 5 14 10 23 11 12 2 11 -4 -5 -32 -11 -19 -16 -36 -10 -39 5
-4 5 -14 -2 -28 -9 -20 -9 -20 4 -5 8 10 16 16 19 13 2 -3 5 2 5 10 0 8 -4 12
-8 9 -4 -2 -10 0 -14 6 -3 5 3 10 14 10 12 0 21 -6 21 -14 0 -8 8 -17 18 -21
14 -5 15 -4 5 6 -15 15 -17 29 -4 29 5 0 13 -10 17 -22 6 -19 7 -19 16 -5 6
11 5 23 -1 34 -7 13 -10 14 -11 4 0 -11 -5 -9 -22 5 -18 16 -21 17 -15 2 4
-12 2 -15 -9 -11 -11 4 -12 8 -3 19 9 11 15 12 26 2 12 -10 18 -9 30 7 10 14
14 15 13 5 -4 -27 0 -41 10 -35 5 3 7 13 4 23 -5 14 -4 15 5 2 9 -13 11 -13
11 2 0 9 4 19 9 22 5 4 7 -3 4 -14 -3 -12 0 -20 6 -20 7 0 9 6 5 13 -4 6 -4 9
1 5 4 -4 14 -3 21 3 10 8 12 6 9 -11 -3 -16 0 -20 10 -16 9 3 20 -4 27 -17 6
-12 12 -22 12 -23 1 0 -6 -9 -14 -20 -14 -17 -14 -18 2 -6 10 8 16 19 15 25
-1 7 4 11 12 9 11 -2 12 0 4 10 -6 7 -12 18 -13 23 -1 6 -4 12 -7 15 -4 3 -3
-1 1 -7 4 -7 2 -13 -4 -13 -7 0 -10 7 -7 15 7 16 -9 30 -16 15 -3 -6 -4 -5 -3
2 2 9 25 13 72 15 88 1 84 1 80 15 -1 7 -1 10 1 5 3 -4 9 -5 14 -1 5 3 9 0 9
-5 0 -6 -5 -11 -11 -11 -5 0 -8 -4 -5 -8 4 -7 37 -8 89 -3 5 1 5 5 2 11 -3 5
0 7 8 4 8 -3 14 2 15 11 1 8 3 21 4 28 1 8 7 14 14 14 9 0 8 -7 -3 -24 -18
-27 -7 -32 13 -5 13 15 13 15 10 -8 -2 -18 -9 -24 -22 -22 -14 2 -16 1 -5 -6
9 -7 10 -12 2 -16 -6 -4 -11 -2 -11 3 0 6 -4 11 -10 11 -12 0 -51 -42 -45 -49
3 -2 12 5 21 17 8 12 20 19 26 16 6 -4 5 -10 -3 -15 -9 -6 -10 -9 -2 -9 6 0
18 7 27 15 8 8 20 13 28 12 7 -2 10 -2 6 0 -13 7 -9 23 4 20 17 -3 37 -21 32
-29 -2 -4 1 -10 7 -14 8 -4 9 -3 5 4 -4 7 -1 12 6 12 9 0 10 3 2 8 -6 4 -10
15 -8 25 1 9 -2 14 -7 11 -6 -3 -8 5 -5 20 2 14 -1 27 -7 30 -7 2 -4 5 7 5 11
1 16 -4 13 -12 -3 -7 3 -28 13 -46 13 -27 18 -30 23 -17 6 14 11 15 28 6 11
-7 23 -9 27 -6 3 3 0 6 -6 6 -6 0 -9 10 -6 23 2 16 -1 24 -11 24 -11 0 -12 -5
-3 -20 7 -15 7 -18 -3 -15 -7 2 -14 14 -16 26 -2 18 1 21 20 18 12 -3 24 -5
27 -6 3 -2 8 -2 13 -1 12 2 8 -17 -5 -22 -7 -3 -3 -4 8 -4 15 1 20 6 16 16 -4
10 -1 12 9 6 11 -7 11 -5 -1 10 -14 17 -13 18 4 11 19 -7 19 -6 2 13 -17 19
-17 20 3 33 12 7 21 16 21 21 0 4 -4 6 -9 3 -5 -3 -11 1 -15 9 -3 9 -12 12
-22 8 -15 -6 -15 -4 1 20 9 15 15 27 12 27 -3 0 -15 -16 -27 -35 -18 -29 -20
-38 -10 -50 10 -12 10 -15 0 -15 -9 0 -9 -4 1 -17 12 -14 12 -16 0 -8 -10 6
-12 4 -6 -4 6 -10 3 -11 -16 -1 -19 11 -24 10 -36 -6 -9 -12 -10 -20 -2 -25 7
-4 5 -8 -4 -12 -19 -7 -15 26 5 50 11 14 10 15 -12 9 -19 -6 -21 -5 -10 3 8 6
24 8 35 5 19 -6 19 -5 -2 17 -17 19 -19 28 -12 42 6 10 7 24 2 30 -4 7 0 4 10
-6 15 -17 17 -17 17 -3 0 10 5 14 10 11 8 -5 8 -11 0 -20 -6 -7 -7 -15 -3 -18
5 -3 13 6 20 19 6 13 7 22 2 18 -5 -3 -9 0 -9 6 0 7 -8 9 -22 4 -20 -6 -21 -5
-9 10 8 9 11 19 7 23 -3 3 -6 1 -6 -4 0 -6 -8 -10 -17 -9 -12 2 -18 12 -18 29
-1 14 -4 29 -7 32 -4 4 -5 -5 -4 -19 3 -25 -18 -44 -29 -26 -8 13 -45 13 -45
0 0 -7 -6 -7 -20 0 -11 6 -20 7 -20 3 0 -4 -10 7 -22 24 l-23 30 1 1552 c0
1087 -3 1551 -10 1551 -6 0 -4 5 4 10 8 5 10 10 5 10 -7 0 -11 33 -10 88 0 48
-3 92 -8 98 -4 7 -10 23 -12 35 -3 13 -9 25 -15 27 -6 2 -8 8 -4 13 3 5 0 9
-5 9 -6 0 -11 7 -11 16 0 8 -3 13 -7 11 -5 -3 -13 1 -20 8 -10 11 -10 15 0 18
7 3 2 6 -10 6 -13 1 -23 5 -23 11 0 5 -7 7 -15 4 -8 -4 -15 -1 -15 5 0 6 -7
11 -15 11 -8 0 -15 5 -15 12 0 6 -3 9 -6 5 -4 -3 -19 0 -34 8 -15 8 -38 15
-51 17 -13 2 -30 7 -38 12 -10 7 -12 5 -6 -3 4 -8 -4 -7 -24 3 -17 9 -45 17
-63 19 l-33 3 -1 57 c-1 64 2 68 46 69 21 1 27 4 21 12 -6 7 -6 18 -1 26 5 8
9 135 10 283 l1 268 -43 19 c-42 18 -58 22 -143 34 -22 3 -56 9 -75 12 -36 7
-726 15 -732 9z m1377 -4396 c-5 -7 9 -13 18 -7 1 1 11 -4 23 -10 15 -8 24 -8
32 0 6 6 18 7 29 3 10 -5 25 -9 33 -9 8 -1 15 -5 15 -11 0 -5 3 -15 7 -21 4
-6 0 -20 -8 -30 -12 -15 -15 -16 -11 -2 8 23 -4 31 -18 12 -11 -15 -12 -15
-12 0 0 14 9 20 28 18 3 -1 6 6 6 13 0 9 -4 11 -11 6 -6 -5 -20 -7 -31 -5 -10
1 -25 -2 -32 -8 -7 -6 -13 -7 -13 -2 0 4 -7 -1 -15 -12 -15 -18 -15 -18 -8 0
5 15 3 17 -8 11 -11 -6 -12 -5 -1 6 21 22 13 30 -13 13 -14 -9 -28 -14 -32
-10 -3 3 -1 6 4 6 7 0 9 12 6 31 -3 21 -1 29 6 24 6 -3 9 -11 6 -16z m-2171
-67 c3 -5 -1 -9 -9 -9 -8 0 -12 4 -9 9 3 4 7 8 9 8 2 0 6 -4 9 -8z m2181 -1
c3 -5 0 -13 -6 -17 -8 -5 -9 -3 -4 6 6 10 4 12 -9 7 -10 -4 -15 -3 -11 3 8 13
22 13 30 1z m85 -5 c0 -8 -4 -18 -10 -21 -6 -4 -7 1 -3 11 5 13 3 15 -7 9 -9
-5 -11 -4 -6 3 10 17 26 15 26 -2z m-2366 -22 c3 -8 2 -12 -4 -9 -6 3 -10 10
-10 16 0 14 7 11 14 -7z m40 0 c3 -8 2 -12 -4 -9 -6 3 -10 10 -10 16 0 14 7
11 14 -7z m43 -9 c0 -8 -4 -12 -9 -9 -5 3 -6 10 -3 15 9 13 12 11 12 -6z
m2448 -21 c-7 -7 -11 -24 -10 -37 2 -14 -2 -24 -11 -24 -7 0 -10 5 -7 11 10
16 11 46 1 52 -14 9 -9 22 10 26 23 5 33 -12 17 -28z m-127 8 c2 -7 9 -9 15
-5 7 3 8 2 4 -2 -13 -15 -36 -14 -30 1 3 9 -2 12 -16 9 -12 -2 -19 0 -16 5 7
12 38 6 43 -8z m-2515 -29 c-5 -12 -3 -14 8 -7 20 12 39 14 39 3 0 -5 -4 -10
-10 -10 -20 -3 -25 -4 -38 -12 -7 -5 -9 -13 -6 -19 4 -6 1 -9 -7 -6 -15 5 -19
26 -10 43 3 6 6 13 7 18 1 4 2 10 3 13 0 3 5 3 11 -1 5 -3 6 -13 3 -22z m2417
23 c0 -3 -4 -8 -10 -11 -5 -3 -10 -1 -10 4 0 6 5 11 10 11 6 0 10 -2 10 -4z
m-2318 -40 c7 4 8 2 4 -5 -9 -13 -26 -5 -25 12 0 9 2 8 6 -1 2 -6 10 -9 15 -6z
m94 -6 c0 -12 -4 -16 -9 -11 -5 5 -6 14 -3 20 10 15 12 14 12 -9z m2201 -5 c0
-8 -4 -12 -9 -9 -5 3 -6 10 -3 15 9 13 12 11 12 -6z m-2243 -20 c-4 -8 -8 -15
-10 -15 -2 0 -4 7 -4 15 0 8 4 15 10 15 5 0 7 -7 4 -15z m166 11 c0 -2 -7 -7
-16 -10 -8 -3 -12 -2 -9 4 6 10 25 14 25 6z m1935 -14 c-3 -3 -11 0 -18 7 -9
10 -8 11 6 5 10 -3 15 -9 12 -12z m107 -20 c-3 -10 -1 -13 6 -8 7 4 12 3 12
-2 0 -5 -12 -9 -27 -9 -16 0 -22 2 -15 4 6 3 12 9 12 14 0 6 -5 7 -12 3 -6 -4
-8 -3 -5 3 10 16 36 11 29 -5z m48 12 c0 -8 -19 -13 -24 -6 -3 5 1 9 9 9 8 0
15 -2 15 -3z m80 -1 c0 -5 -5 -15 -10 -23 -7 -12 -9 -10 -7 8 1 19 17 33 17
15z m-2200 -43 c0 -3 -4 -11 -9 -19 -10 -15 -20 -4 -26 29 -3 17 -1 18 16 7
10 -6 19 -14 19 -17z m34 18 c-3 -4 -9 -8 -15 -8 -5 0 -9 4 -9 8 0 5 7 9 15 9
8 0 12 -4 9 -9z m89 -3 c-3 -9 -8 -14 -10 -11 -3 3 -2 9 2 15 9 16 15 13 8 -4z
m112 5 c3 -6 -1 -7 -9 -4 -10 4 -16 1 -16 -7 0 -7 -3 -10 -6 -6 -7 7 4 27 16
27 5 0 12 -4 15 -10z m29 -6 c3 -8 2 -12 -4 -9 -6 3 -10 10 -10 16 0 14 7 11
14 -7z m1437 -7 c-10 -9 -11 -8 -5 6 3 10 9 15 12 12 3 -3 0 -11 -7 -18z m153
14 c-8 -9 -43 -11 -48 -3 -2 4 9 7 25 7 15 1 26 -1 23 -4z m416 5 c0 -3 -4 -8
-10 -11 -5 -3 -10 -1 -10 4 0 6 5 11 10 11 6 0 10 -2 10 -4z m-1963 -21 c0 -8
-4 -12 -9 -9 -5 3 -6 10 -3 15 9 13 12 11 12 -6z m87 -10 c-4 -8 -13 -15 -22
-15 -13 0 -12 3 4 15 24 18 25 18 18 0z m191 6 c3 -5 2 -12 -3 -15 -5 -3 -9 1
-9 9 0 17 3 19 12 6z m422 -13 c2 -17 0 -19 -7 -8 -5 8 -6 18 -4 22 8 12 10
10 11 -14z m80 7 c0 -8 -4 -12 -9 -9 -5 3 -6 10 -3 15 9 13 12 11 12 -6z m38
6 c3 -5 2 -12 -3 -15 -5 -3 -9 1 -9 9 0 17 3 19 12 6z m80 -1 c3 -5 1 -10 -4
-10 -6 0 -11 5 -11 10 0 6 2 10 4 10 3 0 8 -4 11 -10z m345 6 c0 -3 -4 -8 -10
-11 -5 -3 -10 -1 -10 4 0 6 5 11 10 11 6 0 10 -2 10 -4z m-890 -26 c-6 -11
-13 -20 -16 -20 -2 0 0 9 6 20 6 11 13 20 16 20 2 0 0 -9 -6 -20z m834 4 c3
-8 2 -12 -4 -9 -6 3 -10 10 -10 16 0 14 7 11 14 -7z m-891 -9 c-3 -9 -8 -14
-10 -11 -3 3 -2 9 2 15 9 16 15 13 8 -4z m134 -7 c-3 -8 -6 -5 -6 6 -1 11 2
17 5 13 3 -3 4 -12 1 -19z m123 -24 c-10 -11 -10 -14 0 -14 8 0 10 -3 7 -6 -4
-4 -13 -1 -21 5 -10 8 -16 9 -21 1 -3 -6 -11 -8 -16 -5 -5 4 -9 0 -9 -7 -1 -9
-5 -7 -14 4 -7 10 -17 14 -21 10 -5 -4 -5 -1 -1 6 6 10 11 10 22 1 9 -8 14 -8
14 -1 0 6 -8 16 -17 21 -16 9 -17 10 -1 11 9 0 20 -9 23 -20 6 -18 8 -18 21
-5 9 8 20 12 26 9 6 -4 8 2 4 17 -6 21 -5 22 4 6 9 -14 9 -22 0 -33z m70 35
c0 -8 -47 -6 -55 3 -3 2 9 4 25 4 17 0 30 -3 30 -7z m58 -14 c-3 -3 -9 2 -12
12 -6 14 -5 15 5 6 7 -7 10 -15 7 -18z m59 18 c-4 -3 -1 -13 6 -21 11 -13 9
-14 -10 -1 -16 9 -19 16 -10 21 15 9 23 10 14 1z m110 -15 c-3 -8 -6 -5 -6 6
-1 11 2 17 5 13 3 -3 4 -12 1 -19z m80 0 c-3 -8 -6 -5 -6 6 -1 11 2 17 5 13 3
-3 4 -12 1 -19z m155 -13 c25 2 41 -2 50 -13 7 -9 8 -13 2 -9 -7 4 -17 0 -23
-7 -12 -15 -68 -15 -90 -2 -7 5 -9 16 -5 28 3 12 2 18 -3 15 -5 -4 -10 1 -10
9 0 11 5 10 21 -5 15 -13 32 -18 58 -16z m6 27 c8 -6 2 -9 -18 -9 -20 0 -26 3
-18 9 7 4 15 8 18 8 3 0 11 -4 18 -8z m52 -4 c0 -10 -17 -10 -24 0 -3 5 1 9 9
9 8 0 15 -4 15 -9z m-279 -30 c17 1 29 -4 33 -14 3 -8 10 -13 15 -10 5 3 11 0
14 -7 3 -9 -6 -12 -32 -11 -47 2 -47 2 -33 16 10 10 15 10 22 -2 6 -9 10 -10
10 -3 0 19 -18 25 -39 13 -16 -8 -22 -6 -30 7 -6 11 -11 13 -11 5 0 -7 -5 -10
-11 -6 -8 4 -7 9 2 15 7 4 18 5 23 1 6 -3 22 -5 37 -4z"/>
<path d="M3545 350 c-4 -6 -10 -8 -15 -5 -5 3 -11 1 -14 -4 -8 -13 22 -7 36 7
7 7 9 12 6 12 -4 0 -10 -5 -13 -10z"/>
<path d="M2710 68 c0 -6 3 -8 7 -5 3 4 12 2 19 -4 8 -7 14 -7 19 1 5 8 11 8
20 0 9 -7 16 -6 25 5 9 10 9 15 1 15 -6 0 -11 -5 -11 -11 0 -8 -5 -7 -16 2
-13 10 -17 10 -24 0 -5 -9 -10 -10 -14 -2 -9 15 -26 14 -26 -1z"/>
<path d="M1150 410 c0 -5 5 -10 11 -10 5 0 7 5 4 10 -3 6 -8 10 -11 10 -2 0
-4 -4 -4 -10z"/>
<path d="M1235 400 c-4 -6 -11 -8 -16 -5 -5 4 -9 2 -9 -4 0 -5 9 -9 19 -8 11
0 18 4 15 8 -2 4 2 10 8 12 9 4 10 6 1 6 -6 1 -15 -4 -18 -9z"/>
<path d="M3490 404 c0 -2 9 -8 20 -14 11 -6 20 -7 20 -2 0 6 -9 12 -20 15 -11
3 -20 3 -20 1z"/>
<path d="M1034 348 c-5 -7 44 -3 52 5 3 3 -7 4 -21 3 -15 0 -29 -4 -31 -8z"/>
<path d="M3696 348 c3 -5 10 -6 15 -3 13 9 11 12 -6 12 -8 0 -12 -4 -9 -9z"/>
<path d="M1094 333 c4 -7 3 -13 -3 -13 -6 0 -2 -13 7 -30 9 -16 20 -30 24 -30
13 0 0 52 -17 68 -10 10 -15 11 -11 5z m26 -48 c0 -5 -5 -3 -10 5 -5 8 -10 20
-10 25 0 6 5 3 10 -5 5 -8 10 -19 10 -25z"/>
<path d="M1150 310 c0 -5 5 -10 11 -10 5 0 7 5 4 10 -3 6 -8 10 -11 10 -2 0
-4 -4 -4 -10z"/>
<path d="M3750 311 c0 -6 4 -13 10 -16 6 -3 7 1 4 9 -7 18 -14 21 -14 7z"/>
<path d="M1030 290 c-13 -8 -12 -10 3 -10 9 0 17 5 17 10 0 12 -1 12 -20 0z"/>
<path d="M3647 287 c-6 -16 31 -52 41 -41 4 4 1 9 -6 11 -6 3 -10 8 -7 13 3 4
-1 13 -9 19 -10 9 -15 8 -19 -2z"/>
<path d="M989 273 c-13 -16 -12 -17 4 -4 16 13 21 21 13 21 -2 0 -10 -8 -17
-17z"/>
<path d="M1036 254 c-8 -20 -8 -24 2 -24 4 0 8 9 9 20 2 24 -3 26 -11 4z"/>
<path d="M3774 245 c-4 -8 -11 -12 -17 -8 -5 3 -7 1 -4 -5 8 -12 32 -10 44 3
5 4 2 5 -6 0 -11 -6 -13 -4 -8 8 3 10 4 17 1 17 -2 0 -7 -7 -10 -15z"/>
<path d="M1001 223 c-1 -17 16 -25 25 -12 4 7 3 9 -4 5 -5 -3 -13 0 -15 6 -4
9 -6 10 -6 1z"/>
<path d="M3771 197 c-8 -10 -7 -14 2 -14 8 0 14 6 14 14 0 7 -1 13 -2 13 -2 0
-8 -6 -14 -13z"/>
<path d="M1120 185 c-11 -13 -9 -19 10 -35 14 -13 31 -18 42 -14 17 5 18 4 6
-15 -9 -16 -10 -23 -1 -32 9 -9 11 -7 7 8 -3 12 0 24 7 29 9 5 11 2 6 -12 -6
-16 -5 -17 6 -4 17 21 41 25 33 5 -3 -9 -2 -14 3 -10 5 3 11 -1 14 -7 3 -7 4
1 2 17 -1 17 -6 30 -11 30 -5 0 -14 4 -21 8 -6 4 -15 2 -19 -4 -4 -8 -9 -7
-15 2 -4 8 -16 14 -26 14 -10 0 -18 5 -18 12 0 20 -12 24 -25 8z m16 -4 c-8
-13 21 -34 36 -25 10 5 10 4 1 -6 -10 -11 -16 -10 -33 5 -17 15 -19 35 -4 35
3 0 3 -4 0 -9z m88 -39 c3 -5 -1 -9 -9 -9 -8 0 -12 4 -9 9 3 4 7 8 9 8 2 0 6
-4 9 -8z"/>
<path d="M1010 171 c0 -6 4 -13 10 -16 6 -3 7 1 4 9 -7 18 -14 21 -14 7z"/>
<path d="M1030 176 c0 -2 7 -7 16 -10 8 -3 12 -2 9 4 -6 10 -25 14 -25 6z"/>
<path d="M3780 156 c0 -2 8 -10 18 -17 15 -13 16 -12 3 4 -13 16 -21 21 -21
13z"/>
<path d="M1075 130 c2 -27 10 -33 12 -10 1 11 -2 22 -6 24 -4 3 -7 -4 -6 -14z"/>
<path d="M3717 139 c7 -7 15 -10 18 -7 3 3 -2 9 -12 12 -14 6 -15 5 -6 -5z"/>
<path d="M1295 130 c-3 -6 -11 -8 -16 -5 -5 4 -9 1 -9 -5 0 -7 7 -9 16 -6 10
4 14 2 11 -6 -2 -7 -10 -12 -16 -10 -6 1 -11 -2 -11 -8 0 -12 3 -12 24 -4 9 3
16 14 16 23 0 14 2 14 10 1 5 -8 10 -10 10 -4 0 18 -27 37 -35 24z"/>
<path d="M3283 98 c12 -16 23 -24 25 -19 6 18 20 12 17 -6 -1 -10 0 -12 2 -5
3 8 10 11 17 9 7 -3 19 -1 27 5 11 8 11 9 -3 5 -9 -4 -19 1 -22 10 -5 12 -2
14 16 8 40 -12 78 -12 88 0 6 8 2 11 -15 11 -14 0 -25 -4 -25 -8 0 -4 -4 -8
-10 -8 -5 0 -9 5 -7 12 1 8 -20 12 -65 14 l-67 2 22 -30z m51 7 c5 -14 -30
-13 -44 1 -7 7 -2 10 15 10 13 0 26 -5 29 -11z"/>
<path d="M3646 113 c-6 -14 -5 -15 5 -6 7 7 10 15 7 18 -3 3 -9 -2 -12 -12z"/>
<path d="M1390 113 c0 -4 7 -17 16 -28 14 -19 14 -19 11 5 -3 22 -27 43 -27
23z"/>
<path d="M1515 110 c-3 -5 1 -10 9 -10 9 0 16 5 16 10 0 6 -4 10 -9 10 -6 0
-13 -4 -16 -10z"/>
<path d="M3192 94 c-7 -12 -11 -13 -17 -5 -5 9 -10 9 -21 0 -17 -14 -18 -30
-1 -28 24 3 38 -1 33 -9 -3 -5 1 -9 9 -9 11 0 12 4 3 14 -6 7 -8 17 -4 20 4 4
11 1 16 -7 6 -9 10 -10 10 -3 0 6 -5 15 -10 18 -6 4 -8 11 -5 16 4 5 4 9 1 9
-3 0 -9 -7 -14 -16z m-18 -12 c3 -5 -1 -9 -9 -9 -8 0 -12 4 -9 9 3 4 7 8 9 8
2 0 6 -4 9 -8z"/>
<path d="M1662 88 c2 -5 7 -8 12 -6 4 2 14 -8 21 -22 8 -14 14 -20 15 -14 0 9
44 12 69 5 3 0 -6 -13 -20 -28 -17 -20 -18 -23 -3 -10 11 9 24 14 29 10 4 -5
5 -2 1 4 -4 8 -2 13 6 13 10 0 10 2 -1 9 -8 5 -9 11 -3 15 6 4 15 -2 21 -11 6
-10 11 -14 11 -9 0 5 8 2 18 -5 14 -11 15 -11 5 1 -19 21 -15 35 5 18 18 -16
42 -14 42 3 0 6 -4 8 -9 5 -5 -4 -11 -2 -13 4 -4 14 -46 21 -54 9 -4 -6 -10
-6 -19 1 -9 7 -16 6 -25 -5 -11 -13 -16 -13 -44 2 -35 19 -68 24 -64 11z m46
-23 c-3 -3 -9 2 -12 12 -6 14 -5 15 5 6 7 -7 10 -15 7 -18z m153 -2 c13 -16
12 -17 -3 -4 -17 13 -22 21 -14 21 2 0 10 -8 17 -17z"/>
<path d="M1906 91 c-3 -5 3 -11 15 -14 16 -4 18 -3 8 9 -13 16 -16 17 -23 5z"/>
<path d="M3534 89 c-3 -6 -2 -15 4 -21 6 -6 12 -6 17 3 6 8 4 10 -5 4 -10 -6
-12 -4 -7 8 7 19 2 23 -9 6z"/>
<path d="M1233 75 c0 -8 4 -12 9 -9 5 3 6 10 3 15 -9 13 -12 11 -12 -6z"/>
<path d="M1332 66 c1 -14 5 -23 9 -20 7 4 0 44 -7 44 -2 0 -3 -11 -2 -24z"/>
<path d="M1299 63 c-13 -16 -12 -17 4 -4 16 13 21 21 13 21 -2 0 -10 -8 -17
-17z"/>
<path d="M2267 74 c-10 -10 4 -34 20 -34 8 0 11 -5 8 -10 -3 -6 -1 -10 4 -10
14 0 14 3 -1 35 -11 25 -19 30 -31 19z"/>
<path d="M2383 65 c0 -8 7 -15 14 -15 8 0 12 -4 8 -10 -3 -5 -13 -6 -22 -3
-10 4 -14 2 -9 -5 10 -16 44 -10 41 8 -2 8 -4 21 -4 28 -1 17 -28 15 -28 -3z"/>
<path d="M2905 69 c-4 -5 -3 -9 1 -9 4 0 -1 -7 -12 -16 -18 -15 -17 -15 7 -1
24 14 28 14 58 -10 26 -21 31 -22 21 -7 -16 26 -68 56 -75 43z"/>
<path d="M3227 61 c-4 -17 -3 -21 5 -13 5 5 8 16 6 23 -3 8 -7 3 -11 -10z"/>
<path d="M3476 63 c-6 -14 -5 -15 5 -6 7 7 10 15 7 18 -3 3 -9 -2 -12 -12z"/>
<path d="M1468 53 c6 -2 18 -2 25 0 6 3 1 5 -13 5 -14 0 -19 -2 -12 -5z"/>
<path d="M1590 50 c0 -5 5 -10 10 -10 6 0 10 5 10 10 0 6 -4 10 -10 10 -5 0
-10 -4 -10 -10z"/>
<path d="M3133 33 c1 -18 4 -20 17 -10 25 19 26 20 8 14 -9 -3 -19 -1 -21 6
-3 7 -4 2 -4 -10z"/>
<path d="M3376 37 c3 -10 9 -15 12 -12 3 3 0 11 -7 18 -10 9 -11 8 -5 -6z"/>
<path d="M1864 25 c-18 -14 -18 -14 4 -8 12 3 22 9 22 14 0 12 -3 11 -26 -6z"/>
<path d="M2144 25 c11 -8 24 -15 30 -15 5 0 1 7 -10 15 -10 8 -23 14 -29 14
-5 0 -1 -6 9 -14z"/>
<path d="M2904 25 c-18 -14 -18 -14 4 -8 12 3 22 9 22 14 0 12 -3 11 -26 -6z"/>
<path d="M3070 30 c0 -5 5 -10 11 -10 5 0 7 5 4 10 -3 6 -8 10 -11 10 -2 0 -4
-4 -4 -10z"/>
<path d="M2196 17 c3 -10 9 -15 12 -12 3 3 0 11 -7 18 -10 9 -11 8 -5 -6z"/>
</g>
</svg>
